# File created by Blade
# Date/Time:  Thu Jan 22 16:25:57 2015
#---------------------------------------------------------
:version 1.10
:name HOM
:units
  mass 1.0
  length 1.000000
  angle deg
:documentation
     Acclaim Skeleton File
:root
   axis xyz
   order TX TY TZ RX RY RZ
   position 0.000000 0.000000 0.000000
   orientation 0 0 0
:bonedata
   begin
      id 1
      name RightUpLeg_dum
      direction -1.000000 0.000000 0.000000
      length 3.766986
      axis 0.0 0.0 0.0 xyz
   end
   begin
      id 2
      name LeftUpLeg_dum
      direction 1.000000 0.000000 0.000000
      length 3.766986
      axis 0.0 0.0 0.0 xyz
   end
   begin
      id 3
      name Spine_dum
      direction 0.000000 1.000000 0.000000
      length 7.779697
      axis 0.0 0.0 0.0 xyz
   end
   begin
      id 4
      name RightUpLeg
      direction 0.000000 -1.000000 0.000000
      length 18.017682
      axis 0.0 0.0 0.0 xyz
      dof rx ry rz
   end
   begin
      id 5
      name RightLeg
      direction 0.000000 -1.000000 0.000000
      length 16.881075
      axis 0.0 0.0 0.0 xyz
      dof rx ry rz
   end
   begin
      id 6
      name RightFoot
      direction 0.000000 -0.258819 0.965926
      length 5.770812
      axis 15.0 0.0 0.0 xyz
      dof rx ry rz
   end
   begin
      id 7
      name RightToeBase
      direction 0.000000 0.000000 1.000000
      length 2.952750
      axis 0.0 0.0 0.0 xyz
      dof rx ry rz
   end
   begin
      id 8
      name LeftUpLeg
      direction 0.000000 -1.000000 0.000000
      length 18.017682
      axis 0.0 0.0 0.0 xyz
      dof rx ry rz
   end
   begin
      id 9
      name LeftLeg
      direction 0.000000 -1.000000 0.000000
      length 16.881075
      axis 0.0 0.0 0.0 xyz
      dof rx ry rz
   end
   begin
      id 10
      name LeftFoot
      direction 0.000000 -0.258819 0.965926
      length 5.770812
      axis 15.0 0.0 0.0 xyz
      dof rx ry rz
   end
   begin
      id 11
      name LeftToeBase
      direction 0.000000 0.000000 1.000000
      length 2.952750
      axis 0.0 0.0 0.0 xyz
      dof rx ry rz
   end
   begin
      id 12
      name Spine
      direction 0.000000 1.000000 0.000000
      length 0.000000
      axis 0.0 0.0 0.0 xyz
      dof rx ry rz
   end
   begin
      id 13
      name Spine_dum1
      direction 0.000000 1.000000 0.000000
      length 10.941760
      axis 0.0 0.0 0.0 xyz
   end
   begin
      id 14
      name Spine_dum2
      direction 0.000000 1.000000 0.000000
      length 10.941760
      axis 0.0 0.0 0.0 xyz
   end
   begin
      id 15
      name Spine_dum3
      direction 0.000000 1.000000 0.000000
      length 16.646042
      axis 0.0 0.0 0.0 xyz
   end
   begin
      id 16
      name RightShoulder
      direction -1.000000 0.000000 0.000000
      length 7.708937
      axis 0.0 0.0 90.0 xyz
      dof rx ry rz
   end
   begin
      id 17
      name RightArm
      direction -1.000000 0.000000 0.000000
      length 11.521345
      axis 0.0 0.0 90.0 xyz
      dof rx ry rz
   end
   begin
      id 18
      name RightForeArm
      direction -1.000000 0.000000 0.000000
      length 10.175898
      axis 0.0 0.0 90.0 xyz
      dof ry rz rx
   end
   begin
      id 19
      name RightHand
      direction -1.000000 0.000000 0.000000
      length 0.000000
      axis 0.0 0.0 90.0 xyz
      dof rx ry rz
   end
   begin
      id 20
      name RightHand_dum1
      direction -1.000000 0.000000 0.000000
      length 3.937000
      axis 0.0 0.0 90.0 xyz
   end
   begin
      id 21
      name RightHand_dum2
      direction 0.000000 0.000000 0.000000
      length 0.000000
      axis 0.0 0.0 90.0 xyz
   end
   begin
      id 22
      name RightHandThumb1
      direction 0.000000 0.000000 1.000000
      length 3.937000
      axis 0.0 0.0 90.0 xyz
      dof rx rz ry
   end
   begin
      id 23
      name LeftShoulder
      direction 1.000000 0.000000 0.000000
      length 7.708937
      axis 0.0 0.0 -90.0 xyz
      dof rx ry rz
   end
   begin
      id 24
      name LeftArm
      direction 1.000000 0.000000 0.000000
      length 11.521345
      axis 0.0 0.0 -90.0 xyz
      dof rx ry rz
   end
   begin
      id 25
      name LeftForeArm
      direction 1.000000 0.000000 0.000000
      length 10.175898
      axis 0.0 0.0 -90.0 xyz
      dof ry rz rx
   end
   begin
      id 26
      name LeftHand
      direction 1.000000 0.000000 0.000000
      length 0.000000
      axis 0.0 0.0 -90.0 xyz
      dof rx ry rz
   end
   begin
      id 27
      name LeftHand_dum1
      direction 1.000000 0.000000 0.000000
      length 3.937000
      axis 0.0 0.0 -90.0 xyz
   end
   begin
      id 28
      name LeftHand_dum2
      direction 0.000000 0.000000 0.000000
      length 0.000000
      axis 0.0 0.0 -90.0 xyz
   end
   begin
      id 29
      name LeftHandThumb1
      direction 0.000000 0.000000 1.000000
      length 3.937000
      axis 0.0 0.0 -90.0 xyz
      dof rx rz ry
   end
   begin
      id 30
      name Head
      direction 0.000000 1.000000 0.000000
      length 4.527550
      axis 0.0 0.0 0.0 xyz
      dof rx ry rz
   end
:hierarchy
   begin
      root RightUpLeg_dum LeftUpLeg_dum Spine_dum
      RightUpLeg_dum RightUpLeg
      LeftUpLeg_dum LeftUpLeg
      Spine_dum Spine
      RightUpLeg RightLeg
      RightLeg RightFoot
      RightFoot RightToeBase
      LeftUpLeg LeftLeg
      LeftLeg LeftFoot
      LeftFoot LeftToeBase
      Spine Spine_dum1 Spine_dum2 Spine_dum3
      Spine_dum1 RightShoulder
      Spine_dum2 LeftShoulder
      Spine_dum3 Head
      RightShoulder RightArm
      RightArm RightForeArm
      RightForeArm RightHand
      RightHand RightHand_dum1 RightHand_dum2
      RightHand_dum2 RightHandThumb1
      LeftShoulder LeftArm
      LeftArm LeftForeArm
      LeftForeArm LeftHand
      LeftHand LeftHand_dum1 LeftHand_dum2
      LeftHand_dum2 LeftHandThumb1
   end

# File created by Blade
# Date/Time:  Thu Jan 22 16:25:48 2015
# Frame Rate: 120.000 fps
#------------------------------------------------------
:FULLY-SPECIFIED
:DEGREES
178
root 1.430576 37.033358 8.074593 1.695227 12.835478 4.532648
RightUpLeg -10.351517 2.664358 -4.480975
RightLeg 18.730850 -0.000000 -0.000000
RightFoot -15.864814 -9.816443 14.328060
RightToeBase 13.212314 -0.000000 -0.000000
LeftUpLeg 5.213129 -5.839310 -0.842437
LeftLeg 2.859994 -0.000000 -0.000000
LeftFoot -9.724281 2.822138 -16.802365
LeftToeBase 7.724581 -0.000000 -0.000000
Spine 22.485308 -2.736244 2.284181
RightShoulder -1.711918 -25.242573 -14.326643
RightArm 25.339260 -23.519989 59.704950
RightForeArm -0.252044 -0.000000 63.506928
RightHand 4.929754 -0.000000 -4.739741
RightHandThumb1 -24.326973 -0.000000 -32.862282
LeftShoulder -28.124086 38.261390 -5.231514
LeftArm 45.734880 19.501996 -67.385520
LeftForeArm 31.178156 -0.000000 39.078393
LeftHand -15.243783 0.000000 -5.707108
LeftHandThumb1 -26.253704 0.000000 33.147579
Head 9.635871 23.239371 -8.123315
179
root 1.364225 37.049235 8.123591 1.892518 13.058406 4.805199
RightUpLeg -10.408574 2.666509 -4.644573
RightLeg 18.768488 -0.000000 -0.000000
RightFoot -15.983416 -9.950464 14.416457
RightToeBase 13.254816 -0.000000 -0.000000
LeftUpLeg 5.081714 -5.987845 -0.922296
LeftLeg 2.885328 -0.000000 -0.000000
LeftFoot -9.454835 2.585286 -17.321671
LeftToeBase 7.648425 -0.000000 -0.000000
Spine 22.589078 -2.564556 2.423251
RightShoulder -1.499132 -25.179595 -14.630090
RightArm 25.174277 -23.126387 59.637040
RightForeArm 0.116116 0.000000 62.895479
RightHand 5.079848 0.000000 -4.724833
RightHandThumb1 -24.326973 -0.000000 -32.862282
LeftShoulder -28.064252 38.184537 -5.251609
LeftArm 45.493633 18.928066 -67.714868
LeftForeArm 30.528881 -0.000000 38.920517
LeftHand -15.400288 -0.000000 -5.502054
LeftHandThumb1 -26.253704 0.000000 33.147579
Head 9.713659 23.298797 -8.506436
180
root 1.291102 37.065807 8.162249 2.144153 13.213695 5.121551
RightUpLeg -10.574194 2.538918 -4.839816
RightLeg 18.856404 -0.000000 -0.000000
RightFoot -16.039834 -9.980873 14.373316
RightToeBase 13.270438 -0.000000 -0.000000
LeftUpLeg 4.835305 -5.983917 -1.000856
LeftLeg 3.028942 -0.000000 -0.000000
LeftFoot -9.313886 2.204545 -18.251127
LeftToeBase 7.820257 -0.000000 -0.000000
Spine 22.667972 -2.327907 2.445584
RightShoulder -1.295015 -25.083695 -14.868751
RightArm 25.059372 -22.820104 59.491274
RightForeArm 0.553302 -0.000000 62.309508
RightHand 5.082570 -0.000000 -4.814321
RightHandThumb1 -24.326973 -0.000000 -32.862282
LeftShoulder -28.060962 38.141522 -5.255810
LeftArm 45.315521 18.305948 -68.056303
LeftForeArm 30.166364 -0.000000 38.751693
LeftHand -15.494668 0.000000 -5.243379
LeftHandThumb1 -26.253704 0.000000 33.147579
Head 9.750008 23.304207 -8.803155
181
root 1.222259 37.082579 8.201651 2.424142 13.451333 5.418033
RightUpLeg -10.735828 2.448759 -5.019869
RightLeg 18.913717 -0.000000 -0.000000
RightFoot -16.105814 -10.108455 14.360877
RightToeBase 13.262236 -0.000000 -0.000000
LeftUpLeg 4.486631 -6.046117 -1.037995
LeftLeg 3.339423 -0.000000 -0.000000
LeftFoot -9.208303 1.668063 -19.151368
LeftToeBase 7.548071 -0.000000 -0.000000
Spine 22.678162 -2.170197 2.515051
RightShoulder -1.132393 -24.977245 -15.111085
RightArm 24.927206 -22.557901 59.297442
RightForeArm 0.982017 -0.000000 61.742691
RightHand 5.033895 0.000000 -4.739153
RightHandThumb1 -24.326973 -0.000000 -32.862282
LeftShoulder -28.035061 38.060518 -5.244005
LeftArm 45.112500 17.725990 -68.403055
LeftForeArm 29.879389 -0.000000 38.513779
LeftHand -15.414427 -0.000000 -5.031036
LeftHandThumb1 -26.253704 0.000000 33.147579
Head 9.797865 23.293280 -9.116298
182
root 1.156369 37.101980 8.246983 2.683395 13.688604 5.756418
RightUpLeg -10.850791 2.439037 -5.249859
RightLeg 18.975417 -0.000000 -0.000000
RightFoot -16.207231 -10.260141 14.441417
RightToeBase 13.183300 -0.000000 -0.000000
LeftUpLeg 4.248243 -6.340028 -1.124305
LeftLeg 3.550042 -0.000000 -0.000000
LeftFoot -9.085752 1.212859 -20.160636
LeftToeBase 6.989615 -0.000000 -0.000000
Spine 22.692491 -2.007043 2.520858
RightShoulder -0.966717 -24.852859 -15.337235
RightArm 24.776619 -22.323270 59.111644
RightForeArm 1.354095 -0.000000 61.141341
RightHand 4.863842 -0.000000 -4.963924
RightHandThumb1 -24.326973 -0.000000 -32.862282
LeftShoulder -28.016827 38.002582 -5.249983
LeftArm 44.962597 17.129480 -68.694106
LeftForeArm 29.668648 -0.000000 38.246561
LeftHand -15.703430 -0.000000 -4.525605
LeftHandThumb1 -26.253704 0.000000 33.147579
Head 9.904434 23.224636 -9.381762
183
root 1.087404 37.121211 8.283935 3.013748 13.910515 6.094372
RightUpLeg -11.035364 2.422769 -5.476430
RightLeg 19.000993 -0.000000 -0.000000
RightFoot -16.301049 -10.413992 14.497379
RightToeBase 13.160318 -0.000000 -0.000000
LeftUpLeg 3.880366 -6.715765 -1.176676
LeftLeg 3.894033 -0.000000 -0.000000
LeftFoot -9.004440 0.644155 -21.095246
LeftToeBase 5.681115 -0.000000 -0.000000
Spine 22.617489 -1.847073 2.509974
RightShoulder -0.801980 -24.742204 -15.595891
RightArm 24.686437 -22.118613 58.928232
RightForeArm 1.746808 -0.000000 60.508700
RightHand 4.852103 0.000000 -4.966197
RightHandThumb1 -24.326973 -0.000000 -32.862282
LeftShoulder -28.020749 37.950225 -5.267287
LeftArm 44.787575 16.515545 -69.003183
LeftForeArm 29.530604 -0.000000 38.000430
LeftHand -15.777855 -0.000000 -4.305812
LeftHandThumb1 -26.253704 0.000000 33.147579
Head 9.995751 23.113137 -9.645442
184
root 1.012697 37.139341 8.329153 3.274158 14.189282 6.372773
RightUpLeg -11.126666 2.401008 -5.622754
RightLeg 19.008137 -0.000000 -0.000000
RightFoot -16.392807 -10.647495 14.533973
RightToeBase 12.937751 -0.000000 -0.000000
LeftUpLeg 3.402603 -6.643465 -1.082266
LeftLeg 4.612923 -0.000000 -0.000000
LeftFoot -8.873993 -0.630702 -21.887541
LeftToeBase 4.387472 -0.000000 -0.000000
Spine 22.589840 -1.755011 2.541908
RightShoulder -0.670515 -24.692355 -15.829070
RightArm 24.666842 -21.886743 58.689744
RightForeArm 2.043447 0.000000 59.920647
RightHand 4.847056 -0.000000 -4.754615
RightHandThumb1 -24.326973 -0.000000 -32.862282
LeftShoulder -28.037533 37.901047 -5.305501
LeftArm 44.586275 15.859016 -69.327864
LeftForeArm 29.553713 0.000000 37.800209
LeftHand -15.730197 -0.000000 -4.282611
LeftHandThumb1 -26.253704 0.000000 33.147579
Head 10.057443 23.011118 -9.915986
